# xmcd CD database file
#
# Track frame offsets:
#	150
#	14672
#	33892
#	66470
#	84145
#	109592
#	128972
#
# Disc length: 1990 seconds
#
# Revision: 0
# Processed by: cddbd v1.5.2PL0 Copyright (c) Steve Scherf et al.
# Submitted via: CDex 1.70beta2
#
DISCID=5407c407
DTITLE=Doc Severinsen - Brass Roots
DYEAR=1971
DGENRE=Jazz
TTITLE0=Brass Roots
TTITLE1=Okefenokee
TTITLE2=Psalm 150
TTITLE3=Good Medicine
TTITLE4=Prelude - Come Sweet Death (Love Story)
TTITLE5=Move Over
TTITLE6=Celebrate
EXTD=YEAR: 1971
EXTT0=
EXTT1=
EXTT2=
EXTT3=
EXTT4=
EXTT5=
EXTT6=
PLAYORDER=
